<mxfile host="app.diagrams.net" modified="2022-09-23T23:47:23.988Z" agent="5.0 (X11; Linux x86_64) AppleWebKit/537.36 (KHTML, like Gecko) Chrome/79.0.3945.130 Safari/537.36" etag="6degT220lSJuA2CXhjJ8" version="20.3.6" type="github">
  <diagram id="ev7w3kpoI_RgwVv6gzLk" name="PÃ¡gina-1">
    <mxGraphModel dx="875" dy="626" grid="1" gridSize="10" guides="1" tooltips="1" connect="1" arrows="1" fold="1" page="1" pageScale="1" pageWidth="827" pageHeight="1169" math="0" shadow="0">
      <root>
        <mxCell id="0" />
        <mxCell id="1" parent="0" />
        <mxCell id="Jd0HepP_3KZESaIr4pI2-15" value="" style="shape=ext;double=1;rounded=0;whiteSpace=wrap;html=1;" vertex="1" parent="1">
          <mxGeometry width="830" height="200" as="geometry" />
        </mxCell>
        <mxCell id="Jd0HepP_3KZESaIr4pI2-30" value="Home&lt;span style=&quot;white-space: pre;&quot;&gt;	&lt;/span&gt;&lt;span style=&quot;white-space: pre;&quot;&gt;	&lt;/span&gt;Kof&lt;span style=&quot;white-space: pre;&quot;&gt;	&lt;/span&gt;&lt;span style=&quot;white-space: pre;&quot;&gt;	&lt;/span&gt;&lt;span style=&quot;white-space: pre;&quot;&gt;	&lt;/span&gt;MK&lt;span style=&quot;white-space: pre;&quot;&gt;	&lt;/span&gt;&lt;span style=&quot;white-space: pre;&quot;&gt;	&lt;/span&gt;&lt;span style=&quot;white-space: pre;&quot;&gt;	&lt;/span&gt;SF" style="shape=ext;double=1;rounded=0;whiteSpace=wrap;html=1;" vertex="1" parent="1">
          <mxGeometry y="200" width="830" height="60" as="geometry" />
        </mxCell>
        <mxCell id="Jd0HepP_3KZESaIr4pI2-32" value="" style="shape=ext;double=1;rounded=0;whiteSpace=wrap;html=1;" vertex="1" parent="1">
          <mxGeometry x="620" y="260" width="207" height="870" as="geometry" />
        </mxCell>
        <mxCell id="Jd0HepP_3KZESaIr4pI2-73" value="" style="shape=table;html=1;whiteSpace=wrap;startSize=0;container=1;collapsible=0;childLayout=tableLayout;" vertex="1" parent="1">
          <mxGeometry x="634" y="350" width="180" height="750" as="geometry" />
        </mxCell>
        <mxCell id="Jd0HepP_3KZESaIr4pI2-74" value="" style="shape=tableRow;horizontal=0;startSize=0;swimlaneHead=0;swimlaneBody=0;top=0;left=0;bottom=0;right=0;collapsible=0;dropTarget=0;fillColor=none;points=[[0,0.5],[1,0.5]];portConstraint=eastwest;" vertex="1" parent="Jd0HepP_3KZESaIr4pI2-73">
          <mxGeometry width="180" height="251" as="geometry" />
        </mxCell>
        <mxCell id="Jd0HepP_3KZESaIr4pI2-75" value="" style="shape=partialRectangle;html=1;whiteSpace=wrap;connectable=0;fillColor=none;top=0;left=0;bottom=0;right=0;overflow=hidden;" vertex="1" parent="Jd0HepP_3KZESaIr4pI2-74">
          <mxGeometry width="60" height="251" as="geometry">
            <mxRectangle width="60" height="251" as="alternateBounds" />
          </mxGeometry>
        </mxCell>
        <mxCell id="Jd0HepP_3KZESaIr4pI2-76" value="" style="shape=partialRectangle;html=1;whiteSpace=wrap;connectable=0;fillColor=none;top=0;left=0;bottom=0;right=0;overflow=hidden;" vertex="1" parent="Jd0HepP_3KZESaIr4pI2-74">
          <mxGeometry x="60" width="60" height="251" as="geometry">
            <mxRectangle width="60" height="251" as="alternateBounds" />
          </mxGeometry>
        </mxCell>
        <mxCell id="Jd0HepP_3KZESaIr4pI2-77" value="" style="shape=partialRectangle;html=1;whiteSpace=wrap;connectable=0;fillColor=none;top=0;left=0;bottom=0;right=0;overflow=hidden;" vertex="1" parent="Jd0HepP_3KZESaIr4pI2-74">
          <mxGeometry x="120" width="60" height="251" as="geometry">
            <mxRectangle width="60" height="251" as="alternateBounds" />
          </mxGeometry>
        </mxCell>
        <mxCell id="Jd0HepP_3KZESaIr4pI2-78" value="" style="shape=tableRow;horizontal=0;startSize=0;swimlaneHead=0;swimlaneBody=0;top=0;left=0;bottom=0;right=0;collapsible=0;dropTarget=0;fillColor=none;points=[[0,0.5],[1,0.5]];portConstraint=eastwest;" vertex="1" parent="Jd0HepP_3KZESaIr4pI2-73">
          <mxGeometry y="251" width="180" height="248" as="geometry" />
        </mxCell>
        <mxCell id="Jd0HepP_3KZESaIr4pI2-79" value="" style="shape=partialRectangle;html=1;whiteSpace=wrap;connectable=0;fillColor=none;top=0;left=0;bottom=0;right=0;overflow=hidden;" vertex="1" parent="Jd0HepP_3KZESaIr4pI2-78">
          <mxGeometry width="60" height="248" as="geometry">
            <mxRectangle width="60" height="248" as="alternateBounds" />
          </mxGeometry>
        </mxCell>
        <mxCell id="Jd0HepP_3KZESaIr4pI2-80" value="" style="shape=partialRectangle;html=1;whiteSpace=wrap;connectable=0;fillColor=none;top=0;left=0;bottom=0;right=0;overflow=hidden;" vertex="1" parent="Jd0HepP_3KZESaIr4pI2-78">
          <mxGeometry x="60" width="60" height="248" as="geometry">
            <mxRectangle width="60" height="248" as="alternateBounds" />
          </mxGeometry>
        </mxCell>
        <mxCell id="Jd0HepP_3KZESaIr4pI2-81" value="" style="shape=partialRectangle;html=1;whiteSpace=wrap;connectable=0;fillColor=none;top=0;left=0;bottom=0;right=0;overflow=hidden;" vertex="1" parent="Jd0HepP_3KZESaIr4pI2-78">
          <mxGeometry x="120" width="60" height="248" as="geometry">
            <mxRectangle width="60" height="248" as="alternateBounds" />
          </mxGeometry>
        </mxCell>
        <mxCell id="Jd0HepP_3KZESaIr4pI2-82" value="" style="shape=tableRow;horizontal=0;startSize=0;swimlaneHead=0;swimlaneBody=0;top=0;left=0;bottom=0;right=0;collapsible=0;dropTarget=0;fillColor=none;points=[[0,0.5],[1,0.5]];portConstraint=eastwest;" vertex="1" parent="Jd0HepP_3KZESaIr4pI2-73">
          <mxGeometry y="499" width="180" height="251" as="geometry" />
        </mxCell>
        <mxCell id="Jd0HepP_3KZESaIr4pI2-83" value="" style="shape=partialRectangle;html=1;whiteSpace=wrap;connectable=0;fillColor=none;top=0;left=0;bottom=0;right=0;overflow=hidden;" vertex="1" parent="Jd0HepP_3KZESaIr4pI2-82">
          <mxGeometry width="60" height="251" as="geometry">
            <mxRectangle width="60" height="251" as="alternateBounds" />
          </mxGeometry>
        </mxCell>
        <mxCell id="Jd0HepP_3KZESaIr4pI2-84" value="" style="shape=partialRectangle;html=1;whiteSpace=wrap;connectable=0;fillColor=none;top=0;left=0;bottom=0;right=0;overflow=hidden;" vertex="1" parent="Jd0HepP_3KZESaIr4pI2-82">
          <mxGeometry x="60" width="60" height="251" as="geometry">
            <mxRectangle width="60" height="251" as="alternateBounds" />
          </mxGeometry>
        </mxCell>
        <mxCell id="Jd0HepP_3KZESaIr4pI2-85" value="" style="shape=partialRectangle;html=1;whiteSpace=wrap;connectable=0;fillColor=none;top=0;left=0;bottom=0;right=0;overflow=hidden;pointerEvents=1;" vertex="1" parent="Jd0HepP_3KZESaIr4pI2-82">
          <mxGeometry x="120" width="60" height="251" as="geometry">
            <mxRectangle width="60" height="251" as="alternateBounds" />
          </mxGeometry>
        </mxCell>
        <mxCell id="Jd0HepP_3KZESaIr4pI2-86" value="Sponsor" style="rounded=0;whiteSpace=wrap;html=1;" vertex="1" parent="1">
          <mxGeometry x="650" y="270" width="150" height="30" as="geometry" />
        </mxCell>
        <mxCell id="Jd0HepP_3KZESaIr4pI2-90" value="" style="rounded=0;whiteSpace=wrap;html=1;" vertex="1" parent="1">
          <mxGeometry x="10" y="280" width="590" height="260" as="geometry" />
        </mxCell>
        <mxCell id="Jd0HepP_3KZESaIr4pI2-91" value="" style="shape=process;whiteSpace=wrap;html=1;backgroundOutline=1;" vertex="1" parent="1">
          <mxGeometry x="20" y="290" width="260" height="240" as="geometry" />
        </mxCell>
        <mxCell id="Jd0HepP_3KZESaIr4pI2-92" value="" style="shape=process;whiteSpace=wrap;html=1;backgroundOutline=1;" vertex="1" parent="1">
          <mxGeometry x="320" y="290" width="260" height="240" as="geometry" />
        </mxCell>
        <mxCell id="Jd0HepP_3KZESaIr4pI2-93" value="" style="rounded=0;whiteSpace=wrap;html=1;" vertex="1" parent="1">
          <mxGeometry x="10" y="570" width="590" height="260" as="geometry" />
        </mxCell>
        <mxCell id="Jd0HepP_3KZESaIr4pI2-94" value="" style="shape=process;whiteSpace=wrap;html=1;backgroundOutline=1;" vertex="1" parent="1">
          <mxGeometry x="20" y="580" width="260" height="240" as="geometry" />
        </mxCell>
        <mxCell id="Jd0HepP_3KZESaIr4pI2-95" value="" style="shape=process;whiteSpace=wrap;html=1;backgroundOutline=1;" vertex="1" parent="1">
          <mxGeometry x="320" y="580" width="260" height="240" as="geometry" />
        </mxCell>
        <mxCell id="Jd0HepP_3KZESaIr4pI2-96" value="" style="rounded=0;whiteSpace=wrap;html=1;" vertex="1" parent="1">
          <mxGeometry x="10" y="870" width="590" height="260" as="geometry" />
        </mxCell>
        <mxCell id="Jd0HepP_3KZESaIr4pI2-97" value="" style="shape=process;whiteSpace=wrap;html=1;backgroundOutline=1;" vertex="1" parent="1">
          <mxGeometry x="20" y="880" width="260" height="240" as="geometry" />
        </mxCell>
        <mxCell id="Jd0HepP_3KZESaIr4pI2-98" value="" style="shape=process;whiteSpace=wrap;html=1;backgroundOutline=1;" vertex="1" parent="1">
          <mxGeometry x="320" y="880" width="260" height="240" as="geometry" />
        </mxCell>
      </root>
    </mxGraphModel>
  </diagram>
</mxfile>
